<mxfile host="app.diagrams.net" modified="2020-11-05T10:02:00.579Z" agent="5.0 (X11; Linux x86_64) AppleWebKit/537.36 (KHTML, like Gecko) Chrome/86.0.4240.183 Safari/537.36" etag="jGHLXtoXTW8ogSJKv57_" version="13.9.1" type="github">
  <diagram id="8r1Cz2U5vZ8Z8TKTh7Ut" name="Page-1">
    <mxGraphModel dx="1822" dy="1138" grid="1" gridSize="10" guides="1" tooltips="1" connect="1" arrows="1" fold="1" page="0" pageScale="1" pageWidth="827" pageHeight="1169" math="0" shadow="0">
      <root>
        <mxCell id="0" />
        <mxCell id="1" parent="0" />
        <mxCell id="gIgrRGbVIwcn-VReWDCF-2" value="Actor" style="shape=umlActor;verticalLabelPosition=bottom;verticalAlign=top;html=1;outlineConnect=0;" vertex="1" parent="1">
          <mxGeometry x="-70" y="220" width="30" height="60" as="geometry" />
        </mxCell>
        <mxCell id="gIgrRGbVIwcn-VReWDCF-8" style="edgeStyle=orthogonalEdgeStyle;rounded=0;orthogonalLoop=1;jettySize=auto;html=1;" edge="1" parent="1" source="gIgrRGbVIwcn-VReWDCF-3">
          <mxGeometry relative="1" as="geometry">
            <mxPoint x="90" y="260" as="targetPoint" />
          </mxGeometry>
        </mxCell>
        <mxCell id="gIgrRGbVIwcn-VReWDCF-3" value="" style="rounded=0;whiteSpace=wrap;html=1;fillColor=none;" vertex="1" parent="1">
          <mxGeometry x="-77.5" y="210" width="45" height="100" as="geometry" />
        </mxCell>
        <mxCell id="gIgrRGbVIwcn-VReWDCF-5" value="" style="shape=image;verticalLabelPosition=bottom;labelBackgroundColor=#ffffff;verticalAlign=top;aspect=fixed;imageAspect=0;image=data:image/png,iVBORw0KGgoAAAANSUhEUgAAAOwAAADWCAMAAADl7J7tAAAA+VBMVEX////jQymMkp78bib8oieGjZmFi5iJj5zh4uX0YieTmaTP0db29/fBxMriPB+lqbPrgnSrr7iZn6n9cCbjQCX8oSPGyc35+friNRLhQCn8aib8nADW2NzhLgDiOhv8cyb8nxr/+/Xe4OOqrrf8mCb8kCb8fCb/+fHq6+25vMP519Psi370vrf+9fTlVD31xb/rUSj8hSb/8eD8lif8iyb+6c/9wnrvWSj86+nwp5/obFvlTTT30czumY7ysanunZPqeGjmX0vmXUnnaFf4n230Wx32fDX+4Lz9zZb8vW38qTL8r0n91af9xoP9tmD8rEX+3bb9hwv95dfsipD8AAAK60lEQVR4nO2afWObthbGbWpeYnBcYxsntpM4dppA1nZZurRJu63d3e1Nm65Ne7//h7lCEqA3QBA8IFe/f7bGCJ8HPTrnSLjTUSgUCoVCoVAoFAqFQqFQKBQKhUKhUCgUCoWiLVyflx15fl1lHP8E5wcHT8uNvDk4eF5tLFvnp8PuwYtSI99Ndt9WHMyWefFu0t0rNUHnB93uXruM/BsIefdDmZG/HwKxf1QcznYJQy7n4+4EPKZ2+Ri4uFvKx6GLSz6mukAhl5mg96El2uVj6OJSExS6uNudtMnHKOQSPkaWaJWPo5CL52Pk4nLLvSawi4HaohP0coIHtsfH2MVggn4uNvA8ekrt8XHkYjBBBfvjm1hsa3z8Pg558q7YBP05iR/Th+3EVjkv45AL+vh6Nx5YfLnXQ7Lwivr4Zq9b8jHVxg0hdvKyyAT9NSEe04dtxVcp/yJC7u79Jj+QdHHh5V4P52TI3cOf5Ef+sUeObIWPb6iQi/j4LfWYipatWviLCrmAj6/pgcWWez0wIXcPf5cdSbu42HKvCTZk+Qn6wD6mAsu9Jt4yIXcPJA+Qrw+Zgc33MReytI+f77EjD5ruY9bF4QTJjWRd3AIf8yFL+vgF95Qa72PexWCC3suM5F0sv9xrQhSynI8FlihQtmpBFLLUBAlcLL/c6+GFwMVyPv5ZJLbZPn6+ty9g8i5/5NNd0Ui55V4T//64I+Lj01zEA3f+U7eidI4Xp09EjD/u5nAxFg48WlzWrSmV20XvSBj0fF+0IhP2d4TDnpysPtWtKZXPq96JOOpsrd2u+BE9603v6taUyqLX6z2bi+J+kz21F0Ktv4DbNdbHt6HY3i8CteNsHwtdPD8N79ZYHwMXhwiXbXEXj6fhzab3datKYQXD6/VEkWf6WOTi+Qm6WUN9jFwMeMUbOdPHIhfPf8U3W/1dty4hr1c4vt6vgmWb5WL+crRgoY+/1K1LxHFvGgXYO+XCz/KxwMVH8a16qyb6+GqVBMgnqfFOqliRi08IsU308WtSrKC3KOBi0E0kTL/VrYzn+G5KRMj3Fuk+5lwMuwlCbfN8fLWgIuR7izQf779htZ7Sd2qgj7+u6BD5JJXqYmbHM2Zu1DwfH99P2RhZDRfiqeV2dyfsjXpN8/HZHSuW6y3EPmZdHHcThI+bJrbzjbUx31vIuJhJTnBm74/rFsdy2ePV0st2fCHh4iNe6+q2bm08l18WXKB0byHyMetibjGs7q7qVibk04INlektcl08f8VqXbxunIcxV5yVqd5C6GNKK7tgp4vvdWtK5+wba2Wqt+B9TLmY7SZ6q/vG5WGKv1krU0mKX7Kki5nkNF18rVtNHpf3tJXJ3kLgY9LFJ/S09hqYhTle05NLJinWx6SLqa0OyEzfzuoWIsX3KTW5ZG/Bik1cTCenaQO7/xSYkpssW87HiVYqOa3um1lcxdAlN+ktaB8TLh4T10+bW1zFXN0RVp4mCzPFxWQ3sVo1uLiKOftMWDnZANE+jp8BsdVZfGl2cRVDlty4tyB9HLuYWLAtKK5iLgkrR0mK9PH+zpjtJlbTNmUmGqLkHgl8zHYT07YUVzHf461B1Fskh4z7F0w30aLiKuYy3hrgDdCccDHdTbSruIr5FL3cw0nqgnZxlJxAZmpXcRUTl9wj2sfoQAZ3E6smHr6U4RiXXNhbjOeUi/Fr2HYWVzG45KLe4oJwMeomWltcxeBdLly22Mehi/HvJnrtz0w0X+Hkgt4C+xi6+AhO6+c2F1cxtzBPhUkqcfH0ERRXMbDknkQvL4GLw63O6hFlJppwl/tsDn0MXAy6iUdSXMWEJRckKehikJweTXEVA0ru9DTMxxdPjqaPqbiK+b5YjXf2gYtPFk39pV6FXH559aS7P//R0BdWVfP1x5uLH58fb2aiuT2dP8riKubsv3VHoFAoFAqFQqFQKBSK/ztmjr9eLpeW79QdybbxvU1fNxD94cCnPlwPQuK/eUEI+0hm8KJBua+3AjA08PMvfDgz29V1U4sxdd1dEp8PDF3XDSv659AwTV1jxToauEjXykVgw29Y5l/4YJZ9g1CK9RruOr5goIO/EGLh1ZzYfvjXfrkQbPgN2xc7GxqsUjy9QXTJoxHra/Gsmka4ahNDGx6+5rGI9U0sDSzTwF5bvrX0RhrWG13ErtmWinXwvOoalYCtAPw9+W7fAqxjdW0VO8RaR1zoI2OYPah1Yj2Um3Rb8Nkyteq1U6yjpWvNoJ1iAx1qDfKumzkh8T+RWN+JQH+VEevbwdAFDIPljPogEevYI3RBxU3rDC3Y/MkYhBfqTDaOwWs7V6zjuSbovcBg0IAZGtVvRmKdkQYuAReYhjaqtHu04Yo11rkXCutsXJ0lxQamTo3TNSv5EItdm2TTapRstIWgoCVWWQVi15qusejJY4ZizSFzjTF6iDyKmS6bnYRizQgX/TVT7AC3pMDAoEOLH1bsZChW4zp0IzedyLJGLpZIBEKxwwgcUKZY+F1gHbrBwPOCIZ7mJDXa8ZzqZh9g4n8bBQtFKh68oStxZQW98RCs2FGcYZ0Ai4lyciTWcD3fmXUcfxBNc0VJeRTezpQxSgVifYPemjPJEdu4n1Rax4XfoleUpFx4My//wkp2PWwdgTeJpaAEtaHu2UdTKxGfBOjJyXQt29jiLeEqjtKtqINay1ZGGdC9iGK3oVOhGU/6NsTOoNhosyFsF13pdZYPEkvYi+mM9K2K7UDjRulRKFY+g+Yyq1msSSoRirVQhNJ3zKA2sbMQGbGOdCOQDy/WiLuiLYkFu56N64Zdg4sSRKbYmcZGWB4uQdkBZgBLcNViwa4n6RXxf7LF9tkIy4Oem7D0LPXqxdoafzqdLbZToViXKusUWxA7ik6nw62AHp3X/mNiUbu4EX20rlzsCLf+hht4NmAQSNu4kjWLypiwHUNi40l/uFjYL4FJHSSjJMTq1WVji8tQMZWLhZ+ZfXKS8sU61dVZ1MOIj9vgc6hQrIU2NZQh88Wi5rjkeSXLCJXTGf9J1WLhDUz6kCVfLBolTCrFQQtJNLVQrFmdWFS36VOHfLEuXe0fCNox6ny6yxa7gWm8iFi0eaU3a7lifa7FexAePh/gjJwtNjBFiS1LLJwjo6DYkezhpxyzPjondFm1SGzay2i0lthuJH9m6RF5YtHEVnUs04nyHZhbZpr8TLForbOLNktsQG1xkntmiEW7AE2v8C1IdJ5r0O8asmcW1T/WD1li0XmanqRjB/+2IVUs/kFApS8FOht8hmkarmc54U7TsWy0WlLFRqfkmg0fO9aMxCbHyZhNeIrm42axbzuzzsxZj6I3IZRYc2Phe/kBthy3wB7GKDqeNnUj3JaYhoEjSRdrYT/oujscutTrj+RFQbw19jvJuYBuaH0NfY/LiQXfYbrg6Qyj/REaWyUDwc4rR2wnOuOG2mixPGHAPvumB7SOBi8WP6zof7VqThZJ1q5Qrmmki+0QPyeSEhsltXgQ+KtLihX8PMlwt/KLN5uVawIzD+14vQzC8xq6sAbxiEQs5+DExkAt8RrPNIZOaI/4pVhnDV/LUo+aq22VYQUu/AlU+BMggEu/+LY3o9FoSD9nP9DQAAMHPBuFVwmI3swPogHGBj63NUhfSX5eB66ehKATj3obzKyl7Q08z17LuscHAzwv/YcmggHeYGBbqTJ8C97RLnBLhUKhUCgUCoVCoVAoFAqFQqFQKBQKhUKhUCi2w/8A3l0JYP0mZcMAAAAASUVORK5CYII=;strokeWidth=5;perimeterSpacing=4;" vertex="1" parent="1">
          <mxGeometry x="110" y="206" width="114.69" height="104" as="geometry" />
        </mxCell>
        <mxCell id="gIgrRGbVIwcn-VReWDCF-7" value="&lt;b&gt;&lt;font style=&quot;font-size: 13px&quot;&gt;commit&lt;/font&gt;&lt;/b&gt;" style="rounded=0;whiteSpace=wrap;html=1;fillColor=none;opacity=0;" vertex="1" parent="1">
          <mxGeometry x="-32.5" y="210" width="120" height="60" as="geometry" />
        </mxCell>
        <mxCell id="gIgrRGbVIwcn-VReWDCF-9" value="" style="rounded=0;whiteSpace=wrap;html=1;strokeWidth=2;fillColor=none;" vertex="1" parent="1">
          <mxGeometry x="110" y="210" width="120" height="100" as="geometry" />
        </mxCell>
        <mxCell id="gIgrRGbVIwcn-VReWDCF-10" value="" style="shape=flexArrow;endArrow=classic;html=1;" edge="1" parent="1">
          <mxGeometry width="50" height="50" relative="1" as="geometry">
            <mxPoint x="240" y="259.5" as="sourcePoint" />
            <mxPoint x="470" y="259.5" as="targetPoint" />
          </mxGeometry>
        </mxCell>
        <mxCell id="gIgrRGbVIwcn-VReWDCF-11" value="&lt;b&gt;&lt;font style=&quot;font-size: 13px&quot;&gt;run pipline&lt;/font&gt;&lt;/b&gt;" style="rounded=0;whiteSpace=wrap;html=1;fillColor=none;opacity=0;" vertex="1" parent="1">
          <mxGeometry x="290" y="200" width="120" height="60" as="geometry" />
        </mxCell>
        <mxCell id="gIgrRGbVIwcn-VReWDCF-14" style="edgeStyle=orthogonalEdgeStyle;rounded=0;orthogonalLoop=1;jettySize=auto;html=1;" edge="1" parent="1" source="gIgrRGbVIwcn-VReWDCF-12">
          <mxGeometry relative="1" as="geometry">
            <mxPoint x="660" y="255" as="targetPoint" />
          </mxGeometry>
        </mxCell>
        <mxCell id="gIgrRGbVIwcn-VReWDCF-12" value="" style="shape=image;verticalLabelPosition=bottom;labelBackgroundColor=#ffffff;verticalAlign=top;aspect=fixed;imageAspect=0;image=data:image/png,iVBORw0KGgoAAAANSUhEUgAAAOAAAADhCAMAAADmr0l2AAAAkFBMVEUaGRj///8AAAAYFxYRDw4VFBMLCQdPT04TEhAEAADQ0NAODAvz8/P4+PjW1tb6+vrm5ubs7Oze3t7IyMjBwcHCwsKhoaGcnJyvr6+oqKiysrKLi4tqaWk6OjnZ2dl/f35IR0d0dHNZWVktLCsfHh1UU1MzMzJAPz+UlJNtbGwkIyOEhIR6enqPj49gYF9CQkGr7M25AAAN90lEQVR4nNVd6XrqOAw1ysLahZYulFKgtHQd7vu/3WRhSSQ7iW0p0PNv7vQjObEtSzqyrDot4OL68u5p+vA5Wyx+fxeLn/8+7x8ntzfjNp6tRH99NHicbTewRz/OcfgHWK4eJjeiryBGcDz57zXjMIyUEUEvI7te3Q+uhN5DhODN41c/pRaYqZUQpTTns8lI4F3YCV5MVsnbxk25HdFLSX5ecr8PL8HxdOlErkhydcf6SowER9MPgNCZ3A5BMl2/bvneio3gJDEpPV92OyQcf7hsKw/B61liUpjYZQiS9fjE8mocBAfJ4LmvOxNCgBmDK+BP8GnNO3hHJMP45T1TfQlOe1CxkXsjhnfPjcOP4DQWpZdiCO8vpyL4pASWHkUI2+tTEBxsxEdvjxh+L9omON6y7XpNAHDfLsFPiFukl1H8HrRHcPANLdNLEMHKJaRyIfjb2uIrA2DSBsFBeILhyxHA1noQrQn+nGj4csRgG2hYErxen2z4cgSwkCT42OreoAdsrFxwK4JfJx6+HKGVrbEgODr19DwAfiQIDvzTEWyALj/Bx1Yc66aI35ouxKYEf85leu7Qg4ZxYkOC2zPjl+4XzUxNM4LLs+OXAKZcBK82/VOT0QI+eQhefLcdGjVFk+2inuDoTShpxoAGflstwZE6n+2Pop5hHcGL73Pm12CW1hFcn+/8zFFnaWoIfpyrfTmiZreoJvh6jvsfRvWOX0lw9Rf4JQyrvLYqgg9/g1/itVV43hUEJ3+EX+J5v7kQvP4z/JLoyRwfGgleRafMntnCvB0aCb4LbRBRHEu4DkZTaiL4KTNBATZfq66E4m0yNAaCAxF+wV51f+JXvXtrG4JXIgmYAA6K+9WcnSH8WhB8FVmAUKgouKqq0XP8eW2JlJbgo8gELbvF/LtsADoZWEdwLGRgysrQN/sQxq8NCXZFQqQ+WiNT/s8ImuIoDUGZCVpagSmu+B+jm6SU4Egmhd37hx/0y5+r6z83ILiVcWHo9LkRmClAKhUIwVuZCRoA+ZKdf/w+W0TiCkKQ37hlgP8owSeJIXyoIXgvFCRpXUWJ1Q6osh0RlPHRlBrqtqjOfwJfs7+qJLiQGkBtcYSIR4G2IyX/xASRIWh5FXAphu8VBL+EolxTKZ2IyS5vFSWCYmkYrRucPV7AZocll6JE8FloAOOVgZ+M0S4NYZGg3AAaM7MXEo8MlwaCK6EB7M1N/ISeWfygBYIjsQGsOOJxKfHQ4VZLcCZEUOeGHrGRqH6DYxV7gaBUpU+1RinhkKr+Ufg9EhSKc0ufUweR73pMjxwJroVS9SHSDcbI3xepoTqqogeCIqs9exbK5t0H5f8W2Zyib0JQao8IhmhKvuGouyuiVewfsicokALaPQnNyAHEX+V/EdEhD87TnqCciUEBaOLPY8/U49BvxXMRwaVQOUyM8lypb4ZjCxGpfO9d7AhKBYIkzZV610cLkEPEhdrnENTxuRKIsKiV5bQwa5EoZrcQdgT/CR0XwFU6ue6I562IGrmbo0p4hqIB3KUMsOWRcDJ2czQnKGVD+6gYcB/+YTMjIMTs3bWc4Fao5A4LLnsiOAklsgvnLlT+JKEBLIXWpamI04gLgaLpXK/LCArpEaS24+jvxtvy/5EQYoLwQFAo1CWRbsHfxWZGQIjJ47SMoEhUTWtViysNu6gSDmm2R6UERVJbigouRVsZ9dDoCsS9mVev5JbgEK2z8m6HzYyAEJMtESXz2ykwhXJIjelL+BrpIkwJikScVGxFITWewAJ7cWrFU4JCA4i8FbyZYxMksFDSfJ6S2YMUqfsh7lgQoxF+Y3dIU0dDSZUuE8GF7EUkGyUwhBlBGRsDqAsMzdphWVtgt0qsjBLytEMsuPzSoBabGf7EXjJJEoKRSM4HCS66eAGXlrywD2HiLymZUIW4obqIk/zRnNtlTAyBkjGiMKszMdlfoWiDXYjpLROCdyIEkeCin31YtuB3SCEhKJEuQKUcxspC/B3YhRi4UCLBICmfNjwDz2R2IQaulURtDImFTEktYmbemd1iGCgJV5uU/BnNIzYz3AYBJkqifhLnI8yGmqSlGrfNbfgmUyUQS2B9rCpnhs0MsxADnxIESd1PxSNwhQKzEBP/KH5pp7dpaGJSEDPDK8TEK8UvkcMjeufKKlTstPIKMeGz4vfUNHU/T+ZeZSE+bsAqxPReFbsLr637uY6MM8+kX7Ag6ir28hFD3c+76Tn4g7BGN9GH4hYfiQO9hzFxgKc0pxATzNkJmvsS3Bm6zmEzw2kVgg03warSwrG+ayfJbjBWfPATrG4Oou99hc0MY5qPf4piNxThQRfSYqGbMe5NCPJaUSxsEmj76+FpzZfIjP4xb/T0eBvGaEMfiH0fPiGm1+V11XANkxa0xyXxXtlSteFWscpWpDuPdkVOyRrDaXA2IWb4rFgT5lhw6eh3xUvcCCHGh/y5hJj4lzUexAetE4NPEqQZLj6wloa+DJcQ05+xEsQbWrplA84g5vgtPxbPba55BQ+qs2ELT3ofiEVmwPrf2j4h5QiKVCUyCTHwqBgzdeSES55y7elPR94MixxwmoMpioM7xSdaUTd0Zy0DkkbMcNUtkCB6KY8QA5eKrzUOOWh99CmBHuBPUczU40JuHiEGxoqvlJIctC6klGGj3REnxwiKbKEsDmkqvnB52+SgdclHCvVnCK/f9tEtcYI4NJMgSghy+WrElJRd5sDQg/DQXRC7sRzvFb6mEjYPQXrQGs8xWGkZfu7+juTDGcw7/KQEeTZCctCahq3woT2rfLuLoLCZYRBiklmjuM6Wk4PWmgEYElcnwzjvMU8+UehtZpJpr5j0DrKPaaOUyHDa9Tn9Y1Lc5v9iMEoJssQmxEgaonLDcdD7dCFiM+MtmwR5pRNHREhCVuM2ZujDn6Yy8HkR78WTlmymto/h9BeZeubMWKy0qe/RHEjGyneLTl3ElKC/YkXd0Io2HJG+w1tnBcRn9RRi0q05JegfXZKVVT3tDcnTRwjJv/i91ign6J85JIJLjQcP+uziC/GGvN4sCzKV988oneBSt6xhrY2CRzjn4SXEZPMqI+jbt4akluqdkLA+g5rCK2ubvVZG0HMRkuLkJl8saHYfnY8Qkxll5f2dNHU/zXZWwN61Dh5CTN4EZXf6zGsnJIJLwyQBzBtcfu3+armtzgl6tRkkDkjjcqUhzmhr4J5Ryb3HnKBXZELMRXPnNqAlJxjOjuTO+diFqR4ESUrTSjoxdOZ1/LUidqrjjqCHt0YFF6uvBcuaKwVdg52d07Aj6GGsiOBiGcbFYc0ltG5CzN493mdSnAkS/bnTs3yhqOaKKLddev9ee4LO+W2ShXCYUnoJag+3yqC96dsTdA29SEWrU4dZ0Dav3MPl4x+SfIdkn+3E2r8anl5ueQaDBJXDRYg5eFcHgm4bKo10HTNFBgkqx9zeIT3oCAeCbhsq7Wzr2o7RIEFlsBdijjrCMR/ttKESwcUjRWeQoFJYO6TH+XAk6GJmyEFrr/yOQYLq2AsxBR2hoCg4ZHjIwvFLZRokKPt4ruBdFQjaz3Ta1do3dDZdg2U5RwumT7n/ikZN8K9vMUhQdgai6DgUCVp/fiK4MIip8E8nQdkt7WIEXlL1LIeQdrblOPQQ9zUS1IdNSULpUsISQctNmsTjPIdMNBKUnTta2rvKuqzVENLOtlwFWCRRbpXhLsfQZYJWb0g/NNtBNixBWX34cg5MOf8SdUMZq6PLElTXZmmj2AsRtNgLqYLCeZY0OqajRlbXHAcow4BrI9aNzVW07JbBfFsazCfpq97M7G5Rx64CJmgxzaIQwZpDNUKA6A3Abt6TeiJS3SJ05YsbAmurRbxjQlCsnXgroMca6EUQUp04WwE9l6K56UKoy1ob0EhyGoJCLZBaQIhrqvUExZrei0N3NlN7GUvzzfCsoE1baQn+pRtqjxiS29WMBP/MHcpFGO5TNtwXZOXengcMEo6B4IXU5RNiMCRzjPfwytxTK4eQlDvWEPxjy9B8obn5sm/9geIzhVm6qbiufS3U318AFcJNBcGRucPGmaGqZqqCoEArPhnE2h2+AUGZnnLsCL+rClEqCcr0oGdGVN2boJqgVH9jRgQ11zrVEBS7M5MLQV09Xx3BzuqsGQa1hcO1BDWNC84H9fwaEDzjMWzArwlBfOb9bBCZb6a0I3imSZqe/rCeC8GzzJUOhxXVX7YEO5OzC4Bhbbr61olg59LQUutUMLTIcCfYGX8L3DvjDCBluN4ECwfCT46ovljfhWDimJ7HQowbHLdwIti5xZ18TgLoNjMvDgQ7I9zJp31E1a3pPAmm0/S0eQyIG3gvPgQ7l8EJBzGoKJrlIpi6pqcaxH7NCQsmgp3BaQYxgueaU0BcBFPvu/2cKUQVdfncBDvXy5bnaUzr+0UJJu53r8V52oPXRqEDJ8FUnmmJYgSbRke2uQl2rmZtUIzgzd528hBMPJuFNMUIlL4FTTsEE4o/IOiCh7D2o+dPMJmoyVqUCYZjWOr7lrRLMMHTHNij4QhgZREVGcFCsNN5+QXOvT/ow/reJigyg4lggqcuF8cYYGEZM5jBRzAxONMl+IbEydjByn/lHcFJMMH48RXA2YsbJt9n4eRxmsFMMMXtbA3WszVI5iW83jfJVdtBgGCC0WSWzNaEZZMtMkq5wfM927IrQYZghpunn/f01aE/7OmIRmHGDNbPD3eurnQ9BAlmGL1MHhbbOWjwtvyaTW9r+jx4Q5rgARfjm5fBbYbB5c31yCE4d8L/0VGz6xEYo7EAAAAASUVORK5CYII=;" vertex="1" parent="1">
          <mxGeometry x="480" y="210" width="89.6" height="90" as="geometry" />
        </mxCell>
        <mxCell id="gIgrRGbVIwcn-VReWDCF-13" value="" style="shape=process;whiteSpace=wrap;html=1;backgroundOutline=1;strokeWidth=2;fillColor=none;" vertex="1" parent="1">
          <mxGeometry x="670" y="225" width="120" height="60" as="geometry" />
        </mxCell>
        <mxCell id="gIgrRGbVIwcn-VReWDCF-15" value="&lt;b&gt;&lt;font style=&quot;font-size: 13px&quot;&gt;prod&lt;/font&gt;&lt;/b&gt;" style="rounded=0;whiteSpace=wrap;html=1;fillColor=none;opacity=0;" vertex="1" parent="1">
          <mxGeometry x="670" y="225" width="120" height="60" as="geometry" />
        </mxCell>
        <mxCell id="gIgrRGbVIwcn-VReWDCF-16" value="" style="shape=image;verticalLabelPosition=bottom;labelBackgroundColor=#ffffff;verticalAlign=top;aspect=fixed;imageAspect=0;image=data:image/png,iVBORw0KGgoAAAANSUhEUgAAAfQAAAGeCAIAAADt22ThAAAgAElEQVR4Ae2dh3cTR9u3vz/oTfKkJ1av7kVWl2w1U0LvxXSDiyR3G1ewDaYYbMBgejEukBAgQAgBAgESQkIn9F70HVmJUKRVb7urX86cnNWyZeaamUvjW7Oz/08uNCOBAAiAAAjQjMD/o1l5UBwQAAEQAAG50Ay54w8XEAABEKAhAcidhpWKYQsIgAAIQO6QOwiAAAjQkADkTsNKxZgFBEAABCB3yB0EQAAEaEgAcqdhpWLMAgIgAAKQO+QOAiAAAjQkALnTsFIxZgEBEAAByB1yBwEQAAEaEoDcaVipGLOAAAiAAOQOuYMACIAADQlA7jSsVIxZQAAEQAByh9xBAARAgIYEIHcaVirGLCAAAiAAuUPuIAACIEBDApA7DSsVYxYQAAEQgNwhdxAAARCgIQHInYaVijELCIAACEDukDsIgAAI0JAA5E7DSqXGmIVvUfLr1dxWDbc9/KTmrlTxmhWCCpnAV4UqxWXjFcWzTUsXjSsKNs02LZ2gXKZOKaMGXrz4PuEJQO6+XIBuHC0CArOCX6XlrNGzthqYu8NPeub2PHaPitcg55d7y7MqubQgp7h81sJ15fP6mucGm9aVz6spXDRWVqJKLvV2C+wHAfIQgNwh9zgQUPJq1Nx2PXOXiTFgYgxGIg0YmQfy2RvtfvcyZJusWVY/f+HPu6bdPDL57rGg080jky/um9pSNH+yZpm3W2A/CJCHAOQeB7WRp/rjlRMlf3keZ72RcaCAcShSycgY1LH61NwV3go1UbWsbv7C34emvjw34c2FoNPLcxNuHpncUjR/ogpyR6+hAAHInQKV5M1W1N2v4jflc7qNjP5Imb2AccjEGDIw92i47d6wmLKLF41b8sOWGbe+n/zw1KRg063vJ5/ZOa1kymJTdrG3W2A/CJCHAOQOuceBQFzkrhSVGrNKlk5c0mmet3vl7GBTp3leyZTFBTnFShFi7nFoM+SRJlVyArmjmcaBQFzkLheaFaIyY1bJtPxQZstMy19qyobZ49BaqCJTsuUTckdjjQOBeMmdbN0P+QGB6BGA3OOgtuhVJ1WuDLlTpaaQT+oSgNwh9zgQgNypqwzknCoEIPc4qI0qjSN6+YTco8cWVwYBBwHIHXKPAwHIHQICgWgTgNzjoLZoVyr5rw+5k7+OkEOqE4DcIfc4EIib3AVmNd+q5Vfk8SqDTVp+hZpvlftcmCziOlAll+anl2rTSpViLFgWh4Ya8QqN5QUhd7SYOBCIl9zVfOs0zsqlzA0VSb3BpqXMDTPYbVp+RSz75wzdsqrZC5dNXDJegcdi49BQY1nXEb8X5I4WEwcCcZG7iVc7h72q84uDOz/9Yf+np4NNOz/9oevz4XmsThOvNuL90POCmtTSxeOW9NQWHt8843DXzBVLF0zVLtWk4OHYODRXz9qhxB7IPdHbin0BdIFVzrf4Xgk9sq05LnKfwmmt/3rHyY+uXPngdmjppw//aP5qzxROa2RpEF7NmF2ysXru5f5pjjXOjm2aUTN3gTGrhPBg7AQBTwKQe6LLXcGvUvEbVbzlCn6VZ/uI0h7I3S9YN7lf2DttY3XhWCmCM4neYf22HOcBkHvithWZwKLiNWo4a/JZW/LZm7WcdSpek1zg9WUXzkYT/kZc5E7RsMyJ3hknemf01BYunbhYl4GwTOJ22GD7HeSeqG1FYFHya/I4G/XMPY51dw3M/fnsHiW/zh6l8fK+i0jtj4vc5UL7VJkZ7LYSRndNUl+wqYTRPYvVHuMfVGfqixoWLGhYsGCmvihS8HGdBCEAuSeo3FX8hjzORgNzr4kx5JC7kTFkYBzIZ3eruM3Rbv3xkrtcYNbyK3S8KiOvJtik41Vp+RWK2E6F1KaWmrKLTdnF2lSM2RO0q4bcGSH3hGsxjmhMHqfLbvakf8zu8LspacjA3JfH7o52fCZuco/yXyQh90OcCAIRJwC5J5jcPaIxnu9CcsZnZAJLxBuc44KQe5TA4rIg4CQAuSeW3D2jMZ5yfx+f4TU6G0pkNyD3yPLE1UDAkwDknihy9xGN8fT7P/EZzsYoxWcgd8+uiD0gEFkCkHtiyD2AaIyn4g3MvY75MxGJz8gEZvt1BOVyfoWK15rP3mRkHvS8ach7/L4gO7I9B1cDAZITgNwTQu6BRGM8rWofvzvmz4Qdnxl5Dtai5NepuSu0nPU61jYD84Bzoo7nrUPYA7mT3DXIXowJQO40l3tQ0RhPpYYZn5EJzAp+tZLfpOG253HW5bN7dKxteuYeI+OgiTFsShr2vGPIewKRu0xkzs2xSkxV2VPrIpwm1krUlbL0IH6CzsloyFCsTletS1OHmzIUq3PTaqTCIO4eY9HgdrEnALnTWu4hRWM89RpUfEYmKJP/G35R8mvU3JV5nG49a6eRMeh55Qju8St3mcgszbRmT6rLqGpN7VoV4bSqLXNRo0RXJUs2y4R+lueVCc2SlOrUvG7ulG8504+yZx4LM3GnHE5XrZGk1cgw1xME/iUAudNZ7qFFYzyFG1R8Rsa3Kkacns/u1rN2GZj7jIx+I2PQxIjkOJ0gk4whA3OPhtvubYiUm2M3u3j/Ov7FTfxrWyKcft8i+Lk7rWmlRFMpTfUzgpakVAvH7v168a+f1Dz8uObRxzWPw0yfVN3/uuiS2LRdmlIJv3trAIm2H3Knp9zDjMYQqNPxfJOP+TN2p1epeM1aTmceu1vH6jMy90c89uKZMecevyP33LzKzJIm/i+buA+3cZ/0RTZxHvdxH2xL6e3MGV/rNzgjSavlTjn8meXmhy3vIpOa3nxc84g3aUiSVovgTKJJ3Ft5IXc6yj1C0RinN50bnvEZGd8+B0bBr1Dx69XclfnsHgNzr/P4WG74lbvEUJVhbRac7uZd38K72RvZxL3Zy/trS8qmVdmTaqUZfhbnyU2t5o878NXS3/5X/2wkPf9ffXip7uknlX/zJw5K0uulIj939+YC7KcZAcidhnKPVDTGU82e8RmFoFLFa8xjd+mZ243M/fZfSv+7pIHnRaK0x6/cZamWXFVFRklTWntbSs+qCKeNq9KbVuRMrZNmWGUifzF3kUWSXp+i7+VMP8qa9QNr9okwE3vmMfGonVnSlVKRNZbr8tPMhjQrDuROK7lHPBrjKWLn/Bk1t1XNbdVy1uhYvQbGHlOUfy/1zInbHr9ylwvNMrE5V1OZM7YmwlNlptZlT6qVmKqlkiAWTI7gbJl0ZWd2VqM0uZJmekJxwiEAudNI7lGLxrhptIBxyMDcq2Nt1bG2xisI45mlQOQeTlfBuSBALQKQO33kHr1oDIFJk4ZMjAF7ilMQhiBL/mbLUKtnIrcgECYByJ0Oco9BNMZTpmTbg5F7mC7A6TQjALlTX+4xjMaQTeiu+YHcaeYmFCdMApA75eUey2iMq0zJtg25h+kCnE4zApA7heWOaIzrFwzkTjM3oThhEoDcKSt3RGMYh0KQu0JgVgksar410ZJKYFXyLXKBnzn4YQoFp5OHAOROVbkjGuNq9gLGoUBG7gqB2cCrHs9pnMpekWhpCqd1DG+5ll9BHvsgJ1ElALlTT+6Ixrhp3fHRr9y1/IpxnIa6r7ev/WKw5/NvEy1t/Pzwqi/6FzPXG3jVCr6fpc2iKh1cPDYEIHeqyR3RmP9GY5yi9yv3Am7tIub6Qx+fv/jBjSsf3E60dOn/bp3/4Prazwcns1vV/CCepI2NiXCXiBOA3Ckmd0RjnDZ32/Ar94mc5uqvtx3/6NKl/7uVaGa/8sHty/93+/IHt3o/O7qQuTafh4UKKNbxQ1A/5E6ZOkY0xs3mbh/9yt3Eq53DXrX+8+HBT86e+OhKoqWj//t196enar/ePoHThJF7CK6k3CmQO0XkjmiMl2iMU/F+5S4XmjX88kLW6pav9mz97PtESxs//7Y8acsEThPlJIUMh0YAcqeG3BGNcUrc20YgcpcLzHn8ygJu7TfchkRLY7kNBl41xuyhiZKKZ0HuZJc7ojHebO62PyC5//t6SSr2VeQZBIIiALmTW+6IxviLxjgVD7kH1fNxMO0JQO6kljuiMU53+92A3GlvKxQwKAKQO0nljmiMX5u7HQC5B9XzcTDtCUDupJS7wKwQVOWxN+iZe9wUho/eCEDutLcVChgUAcidlHLnl6t5jXrmThNjyJvLsN+NAOQeVM/HwbQnALmTUu4Cq4rXaGDtMTGG3RSGj94IBCR3QWmesGSUqHiceJm3NEa0TCUs9dHzc1Oqc7KaSJhyU6q9ZVsmKpOmW3IVFbnqSl9JUSFLJmWPwDSn4AlA7qRsygKzkl+jY20zMvpNScOmpP+sbevNbgm+36/cFcKyfGHJjOQly1IXVKbN85bK0uaPFy/VCks8RSkTmiUp1RnyVSmGrSRMGfJVuanVMpH7omAyoVmaa80pqM6a15C1uNFHypzXkKuplKa5X8ETBfaQnwDkTka5ywRlckG5ituUz+4xIjIT2GxIv3I3CovnpSwalkz8VT7mqny0t3RRNnZnztTFqQs9e68kpVo4du/Xiy58WnGPhOnrRRf44w5I0utdc243e5ols7hJPLhOcLZHcHGTr3SmO2Xjquypda5XwDZFCUDuZJS7vTEJzHJ+hYrbomNvNjIPID7j9+8Sv3KfmbykI3P2VfnoZyrDS7XX9ERlvCwf05o5J19YohC+f7WFVFSendOaNO/nT6offtjyjoTpk+qHXy+6mCnrkIreL/ooSzZLdFWpazt413s5D/u4T3yme1uFP2zIXIYlCsiqhWCCM5A7qWtRIahQ85r0rD7EZ8KX+8KUhb1Z0/6Qj36oMj72nh4qjdcUozszZ44SFasE74PvuSlVmbKOr5dc+rjm8YeNr0iYPq55/GXx1XTVutyUKudgU5ZqyZlQm7J5Ne9GL/feVu7f3tO9rbybvXa5F0PupNaCs3J9b0Du5K5FgWXE782Iz4Qv93xh6bTkJVuypx+TTjgv/8ZbOikd35wxe1ryErvZXV5KJxNaclOr0zQbODOPf2G+TsLEmXk8Na9bklYrE74PmsuEZlm6JWtmferqdtF3XcLT3V7T8Q3i/euyCpfnKvC2JnJrIbDxO+RO+lpEfCZCMXf7qpDC0nkpi8rT5tWlF3pLFWmFE5OX5hH/oGqRpNZkqNaIC3aQMGWo1kjSaqUuZneO7KSy8pxvajIXN2SWNntNy5rsZs8tl4neB6OcV8AG5QhA7qSX+8i3NOIz4Y/cKdc5kWEQCIcA5E4NucsRn/E3fvf7g2o4/QTnggDlCEDuFJE75s9A7oFFWinnIGQ4SgQgd+rIHfEZn37HyD1KjsBlKUoAcqeY3BGf8RZ8h9wp6iBkO0oEIHeqyR3xGS/jd1PSoJ65Q81dGaWugsuCALUIQO4UlDviMx5+t6/AwxzQsbeouM3R6oGCUqWgVC0sVQv+SSphqdLlEVbP+8qEFpnIKhWVxyGJy2UCqrZtT5LYEwIByJ2yHQDzZ1wUb2IMGph7NJx2Bc/ryoghdA/XU/KEJWPFS6cnL5mVvNiRJomLCkTFSpenWF2PlwktkrTa7JzWDNmq2KcsaZtUjGeRKNu7I/HjOeRO5epPjOebTIwhI+OggblXz9qlY23Xsbfkszflsbvz2Ou0HGdao+F2KPi1cr7V1bAR2VYIy4zCYnPa/C3Z0/fkTNn/b9qRPbUzc+a05CWeTzxJkyuzs5v54w6wZ/7AmvtT7BN71glxwY4sSWtECOAiVCQAuVNZ7v/GZ1S8Jp19/ZmD3n5spNZ+U9IhE2PIxBgwMvqNjAMG5h49c3s+uzuPs07LXaXiNSp5dUp+jVwQeY8T9mG1sHRW8pJdOVMfqozP1UbnomNPVMar8tE1GYXfiJe5nZiT1ZCi3/K55eaHTa/jssTYRw0vv1x6Jdmw1XMFYLes4iNdCUDulJe7XGCR8yvU3NZ81hZqSdxbbk2MIT1rdz57s5bTqea2qngNCn6Ngl+t4FfKBZV2p4+kmMWUDaLijsxZZ2TjnquNL1xWlHyuMtxVmnbmTF2Y4r4+cLpqLWf60U9qHn7Q/DYucv+w6c3HNY94k4Yl6XWECxLQ1Wgol5MA5E59udvnz1jV3BU6Vq83XZJ/vz32wjyoZ+7SsXq17C4Np13FbRoJs1TI+e+XwXI23Fhu5IlKl2Us3Jk79ZJ8zB+KMX8qRjvSJdmY47kT6tILJ4qL3PKTnd2UbNj69aILn1lufVJ1P/bps/LbzMKfUnSbclOqXNcRc8snPtKYAOROebnbB7D8ijz2Oj1zF/kl7pbDkfdMDRkZAwbGXj2rT8tZp+I1KfiVMRuVB9a3y/LSSsuyFmzPntovmTwomeRI27OnrsiYPUrkHpNxXDM3tVo0ehd7xnHG/LOxT6zZJ9PV6yVptYEVkPK9AMX0JAC5U79ZC6wKXr2etdPEGHRTJ/k/mhiDRua+PPYGNbdVya8dCbzY5/DZ30UViQkDkbqIQlimF5V8I146Qbx0orjIkb4RLR0lWuZ1tozIIkmvzc5szM5uikPKaspNqUJAJlINgIrXgdwpL3clr0bD6TQyD5Bf5c4cmhjDJsagnrkrn71Jy1mttEfVK6nYf5BnECAtAcid4nIXmFXc1pGpMtQYto/MhBk2Mvr1zN15nPUqXqPC/usoucbppO2uyBgIBE4Acqey3O3R9nINZ42RMUiVl6yaGMNG5t489gYlt1Fhn85YDrMH3l1xJAgETgByp7TcrSpecz57szPcQfINA2O/jrVNy+lU8paPTGekMnwy/SQQeIfHkYlDAHKnsF8U/AothwKTZOyhmKRhI+OgjrXVvkIAH4/FU7jVJY4cqV5SyJ2y3UxgUfJrdKztRsYAyQfsI6GY/jz7NMdGBb+CZNMcKdsA8KcDCPgkALlTtW8r+JVqXquBuYfM0XbHz6cG1i4tZ52SVy/nl1N9NIT8gwBVCEDuVJW7kl+n5awzMvpJO2wfme84ZGDu13LWx3IpGPL0PZnYLM2x5qoqJerK3DCTvEKabZWJCZqrLNkszbTmKir83EI1coVkgiuQhxhyEkECkDtV27qa22og94NL9udOmTvVnLaRWTHWRIvGyMRmiboyffkK4fENwtPdwjNhpeQ9a9JrW6Uygp8rJLqqjJIm0fB6P7c40pVhaZboqiKoD1yKzAQgdwrKfWS9AS2n08Q4aEoaJuHI3RGN0bP6NJxVCn513BeHiUsPlGZZM8qaxYfWc+9v4zzq4z4JK/GvbREdWp89rV6a9X4tTJmgTJZizlzSKBpYz73Z6+cWd7eKDq3PXNIoTTHLfMZq44ILN404AcidenKXCSwqfn0eeyMJtV7AOPTPY0rMA1rOWvKtEhO76pbmWlPXtAt+7uY82MZ5HJbZ7da+u1VwriezqDFX8X7wLhOapemWtPpW/qXN3HtbfdzF/k/3t/GvbEmrb5WlW2QiPDUWu5YQcWsHeEHInXp1rBBUaDgdOlYfSeVuf0zpgH0yO7+OhKvEBNgxwj9MlmyW6KpSV7Xxr2zi3t/mZ1jtb1wvPNKVXtOaq6mU/TdoLhOV5Rir08tbBOd7uA+83+WB3ezpda05xmqYPfzKpcQVIHfqyV3Or8hndxsYe8kpdwNrTx5n48jcmPcBBEp0hshm0hEzyZlQm1HVktayMm1lWzgpa0mjxFAlSyVY/ViWbsnNq8ywNKd7v0t6y8qMqhb7FdIJrhDZguNqJCEAuVNN7gKzkl+tZ20n4RqQ9vV7GYP57B4lr8G+rgACuyAAAvEjALlTTe78chWviZzT202MQR1zm5q7cmTFGKqBjV8nxLcgCESDAOROMQcpebVaUi7wa2IMGhh7NNwOJb86Gi0V1wQBEAiKAOQeC7mP/K5okQusCkG5/SnNMJKK25LP2kLCd2Ebmft1rM32iY8YAoMACJCAAOQedbnbH96xrwNTr+a2a7gdYSb7T6nMvSbGENl+Tc1nbVFxmxBqx3cbCJCEAOQeA7lbRpYK6NSxtutYO/ThJQNzrzFpgFTryZgYQwbmHi2nE4uCkaRXIxsgIBeaIfeoy13Ot6q5LTpWL9nG2hHJz8gjSwN5rG4lrxE9CgRAgDwEIPfoy11QruG261nbIiJTsl3ExBg2MPepeS1YpZ08vRo5AQGM3KNvduHIm/C4HXqyPlAa5reF43dUJb820dYFC0cfClGZMaukeNLitdZ5XZWFG6oI0lrrvKo5iyZrl3reSCUsnSwuqkybtz5rZhzTmsyZ1enzpiQXeeYQe8hAACP36PudX66ho9ztAZmkYT2rT8vtUAjeL3hChmZN8jxoUkrnjira1z77yU8TX52f+ObCBM/05MzEU9umV89dqEoulQtdloIRlBpExbUZhT/kjn+pNsQxPVIaT0nH1WQUaoUlCkEpyZknYPYgd8j9UGiDd8fzqPaVBvjVcgEeag+iIRVISna2zL42POXV+YmvfyEw+5sLE179MvHRjxO3N82ZrlumTX0v9zxhyazkJSek4+8rTXE0+0u14bnaeF9p3CeZsiR1gU5UkoD2JHmRIfcg+mSIdUnXkfvIJBkNt0MusCAmE1Tb0GeUtBYt+LFvxvOzE1+dJ5b7058mnN4+vXnJgjHS4pHB+z8NVS0onShe2pcz9Tf5mPjK/anKcFUxZkPWjKniJRohRu7RN0mQc+ch9+hXCU3lbkwaGJnb3hyU13CwXGhWicvGK5d1VRb+dnDqX4enXP92smf69cC0lcvmTSWKuWuFJUtSF+zJmXJNPjqO6Yp8zP6cyctSF6BOyUkAcofcQw3LMA7a38XBwyOpwTchQZk6pWxMbvF03bIZ+qUz9cs807T8paMkxZoUghGxQlCqE5WMFy+bkVwUxzQ9uWi8qEiPgEyQA+qYfRNA7sH3zGDrko4j95EHl/aqeE1yfkKv6xuzjoobgUCwBCB3yD2UkbuJcVDH6rO/HDXYrzocDwIgEBMCkDvkHorcDcw9eewNCj7ethz99hMTEeBLmn4EIPfod046hmV0rJF12/l4I0f02w/kDgIhEYDco9856Sj3kdct1ckFCLhHv/2E1LHpNw5FiYIlALlHv3PSUe5adpdcYJUJ3j9cE2zLw/EgAAJRJQC5Q+7BxdxNjGEjo1/L6Yxqu8TFQQAEwiQAuUPuQco9acjA3KXhtoXZ8nC6g4BMbJbmWHNVlRJ1ZW4Mk1RaLk23yEQEf3upkkt1GaVjpMXjFD6TvNiUU6JJJZiJj8olAwHIHXIPUu6MwXxWr4rbQobmS/U8yMRmiboyffkK4fENwtPdwjOxSynrO7Kn10mzCH41maxZVjd/4Q9bZlzqn+ojnds9bXvTnMXjllC9Fuiaf8gdcg9W7gP57M32N+rhh76wCUizrBkVLaLvurj3t3Ee9XGfxC4JfulJ2bJaMqpalvK+CyiEpflppfXzF57snf7oR+LlKp0LWL74ecIfw1M2VBVO1S4lfJIWLSS+BCD39y07WjVBrx9UjYyBPPZGFb8hWrjCNiaFMpYrLU/uXc2/vInzaBvncezMbv8WubtV8HO3ffCe+X5FT6WorEBS0lNT+ODUpJfniFc0c8r91fkJT3+aMLBmVvHkxfpMBGeib5IguwbkHv0qoZvc+zXc1Qoenk2NQMuRpVmyp9Yl963h3tvKje3IXXikK72mNVdZIRP9pyBKcemS8Uv6mubePTbJ6XHCjac/Tfhpx/TlCxfqM0uVRLF7Cn3L0jKrkPt/WnZU6piGcu9Q8LFeWARajkxkzs2xZs+qT29amdbalrYydilrSaPEUCVLfT9sdzb+UZKS+aOL2kvmE74iyrnTx7uinJfCRhwJQO4R6KJ+6g9yD/LPST88cTUQAIEACEDukHtwP6gaGf0aLkbu0W82AfRefAuCgA8CkHv0eylG7vAUCIBAzAlA7pA7Ru7RbwMx79g+BnT4pwQhALlHv2Nj5A61gQAIxJwA5A65Y+Qe/TYQ846dIINTFNMHAcg9+h0bI3eoDQRAIOYEIHfIHSP36LeBmHdsHwM6/FOCEIDco9+x6Tdy56xS4iGmSPhaJrRIUmvStBv4Ewd5k4Z5kw/FLCUbtmZJVkjFFZ6mk8rKcybUpte2+nmoqmlFZlGTRI9XLUbfISE1Nsg9+hVDM7kzD2o5nQp+racUsCdYAlJxebpyDWvu6Y8aXnzY/PbDlncxS18VXRaN3p2TuVwm/M9DqjKxOWdyXWpHO/+PzX4WMru3VfhtV+bSJm9LBwdLA8dHlgDkDrkHG5YZyGdvVPGwcFgEWk5ORj1j/tlPqh9+2Pz2g+bYmf3Dlnf/W/78i7LrqXndktT3ywQ5liBOa2+zm/3+Nj9yf9THu92bvLXT29LBkVUVrhYsAcg9Al3UD3SajdyTBnTszWpus59Sh/SHZKJdU5JWw5l25DPrrZgN2J03+rj28VdFl9OVa6TJlU7sjrVu0utXCM732Ncy870E8f2tggub0la2eVujxnlZbMSFAOQOuQc3cjcxBnWsPjW3NS7tlWY3zU2uSNN0seac+qTyfozTV0su8SYN5WQs90SaNaM+pWe18Ew3//ImH0lwrid5y+qsGfWeV8AeMhCA3CH3YOU+ZGDu0XA6yNB8qZ4HmdCcm1KVndWUKW2PccrOacnJWC4TEbyJSZplzVVXSkzVklE1vlJBda6mkvBdTlSvF3rkH3KH3IOV+7CRMaDlrJELLDJB9OkhvAMCIBASAcg9+nqiV8y9gGH/MsjjbFAIyiF3egzxUApaEoDcIffgRu4Oudtfo8pvkAsI/qinZT9BoUCAcgQgd8g9FLnrWX0aTpuCT/AIDOX6ADIMArQkALlD7qHI3cDcncdej5ft0VIKKBQ9CEDukHsocjcy+vWsPiX//fMv9OgPKAUI0IYA5A65hyJ3E2PIwNyr5rXKEZkJaSYDbQyCgpCWAOQOuYci9wLGISPjoJa7VsmvI23jJnfGyvLTSkdJSrylAkmJLqNElVxKWAqp0JKbWl5zkYAAACAASURBVCVJr4tvyk2pIpwpT5hn7IwxAcgdcg9V7vZ1CLZgHYKQemyZNrW0fOaive1zvKUdzXNqCxdO1izzvL5UaMnOahSN2sma82McE3vmcbFpe1YOnlWOvkNC+usQco9+xdBxnnsB45ApacjA3KfldNonROJppmC6ny6jtLZw0aH1M298N8VbujY89cTWGc1LFoyRFruO36Wi8uysRv7Ega+LLn9SdT+O6dOKu18VXRaO3Zed3SwVl3t+CWFPfAlA7pB7iCP3f55mYnUreDVywX+WjY1vmyb/3UdLSvpXz755ZNKbCxO8pVfnJzz9acKuFbNn6ou0qe+DM7kpVRmyVV8WX/1o+QvnKmBx2bAvY9n0hlF4Jl21LjcFq7pH3yTBDCDkQjPkHv0qoenI3SF3PWunffDOf7+yIPndGvcc6jJK6+cvOLV1hjezv7lgN/tPO6bXzV+oTS1VCN/LXSa05GQsZ8849mn5nbg4/f1Nm958UnWfP3FQkl4vJVqjJu6cEzwDkDvkHtbI/Z85kbx6OR+D90Dbkiq5dLJmWeOiBXtWzj6wanY/Udq1Ynbd/IWTtUs9DWVfS1K9nj9xgDX3p3imOacEEwczVGukYixEEWjVe9Zm9PZA7lGvFYWgXMPt0LG2OYa69Pu/kdmv5q7EnMhge6kpu3hq/rI5pqLCUQTJLRrjefGcjIYMRWccU6asIze9FtF2z6ohyR7IPepyl/Otat4KHbuXflp3lMhonzbTq+K1kKRNUyUbSlGpNqU0L404uUVjPAslE1mlyZVxTRVSIVYGjb5Aggy1O5sK5B79uhGYlbwaNbddx+rVsbbrWTvCSQbmXmPSgIkxTJ6vClPSsJF5II+zVs6vwrQZZ9fCBgjElwDkHn25j3zxKgTVal6Lhtuh4a4OJ+WzNxmY+0yMIfLI3ZGTfMfg3b4OcFl82zTuDgIggNkyMTK7vakJLHJ+uVxQqeCHldS8Vh17s4lxkGxyNzIP6Fi99gdWMec91L+joSQQiCABjNxj6PdI9Hklr0bLXW1gHCCb3EdWm9mv5XYq+bURbKC4FAiAQGgEIHeKyV0hqFBxmwzMvWST+8hqM0M61nY1t23kDXwIzlCsaYVmEJxFWgKQO9V6oMCi5NfoWdtNjEES+t3EGMhnb1JxG+UCPI9OtaYVib8sSWu6BMwY5E7BHiioyONsNDD3kFDuBYxDBsbefPYmJa/R/htDAvtCJjDLxNas3JXJ+i1iU5+4YEc4KU27IUuyQiomePWVLN2Sq6nMXNiQWdrsKy1ukORXydLxrBkFu3xI/Qhyp2BNC8rVvHYdm7xPRRmZB7WcNQpeXSLHZ6QiS3ZWk3Ds3q8XXfiy+OoXpX+Gk5hzT4tG787JbHB70F8mNkvyK7OWNIr71wlPbvSRxIfWZ5Y0S/IrZWIKtvmQ7JbIYwvMlqFmKxeYFfyaPM4Gco7cXRaMXKvgVcsSdU0xSVotZ8bRL8quf1T37KPlL8JMH9c++cx8Q1SwPTuryeksmdgszbWm1bcKfu7hXe/l3fGVuDd7+We70+pbc2Xl8LuTIY03MHKnnt9lgjIZ36rhrDIy+k1JpJvwPiL3QybGsIG1K4+zXsmrk/OtNO5C3oomSa3mTxr63Hz9/UpbLe9C3v5fw4vPLDeT9Vsk6fXOO8qEZdIMS0ZVi+BMN/feVu6TPl/p/jbB2Z6MqhZppkUmol6zd5YaGwESgNyp2srVvFY9k6Q/qzr+pLD7nXlAw12l4NfIBAn3nLp9eS9NF2vu6Y9rHo2kxx/XhJ4+t9xkFv6UJW3zXMsla0Z9cs8q/vke/rUtPpLg103JW1dnzXj/3RCgI3AYRQlA7lSVu5JXr+WsN5JvwrszWGRKGna8alXLWT/ycFNijd9lQrN97XX5qmTjNtGoneJRu8JJqfk9drMnV8o8nhGTZlkluqrMxY2Z5mYfKaOoMcdYLc1KrFqgqJcjkm3InapyV/DL1dxmA3MPqdaZcZr9n8F7kiM+szuPvVHFbVIk3rLv0uTKnIz6nKzGnKymcJIkzb7+oqfZHRaQicpy5RW56kpfSVEhS6Zqa4+I7BLtIpA7lZs7v0rP6jMyBtyUSsKPJsaA3e+8Jvv8d3uIBo84UbnhYe4KFQhA7hTuYwpBhZazRs/aSUKbu2XJxBg2Mvp1rK0azmolvxrrzyTaKBLljT0ByJ3CcpcLLCpeQz6728QYNiWRaBFgN7M7P9pf28TcmcfuUnFbsD5w7Hs77phQBCB3CsvdHoEVWDXcVUYmSedEOrXu3LAP4Zn99iUKeK0Kfo19lqTHL4QJ1QNRWBCIEgHIncJyt7cJQZma16RjbTaSbxFgp9BdN0xJh+wv92Ac1DP35LE3qu1DeIIZIFFq7rgsCCQOAcid4nIXmhX8ag2vbeQNHhSIzDhFb0oaMjD36VhbtZx1al7rSCA+4ebCJ45oUNLYE4DcKS93ucDsWCeSEtNmnHJ3bDiiNDrWZg2vXcWvtc+VFFjJ+cSTLNUizSnPlZZLZf+mXKs02+uj/ApBqU5UYhItGyUqjn0qEBVrhaUKIWYlUb+DhzozB3KnfN3LBGUj02bWUmLajLvck4ZNSUNGxkEDc//Ib60b1NyV5HziKXtiXVrTypTuVSm9qx0pdXV7hrVZKiVe/FInKqlLn7spa/qenCmxT73Z0xekLjIKi2M/YMQdSUIAcqe83O0tSVA+8gJu8q4T6eZ0wo+OQI2e1ZfP7tFy16q5bSpek/29TvFeOliWarGbvbNDcGoj/2IP/8pmRxKc7RYP25dazM2rdOvPE8VFVWnzvs2ddEk25k/F6NinK/Ix+yVTzGnz84UlGL+71U6CfITcqS93gVkhqNJwVutY2wmlSbmdjliNnrUzj71Rw+1Q8RqUgmq5/d2zFSPPQJXLBVY532JPArO3hzYj2IGl2db02lbh8Q2ey3Lxbvem9HVmeyzYsjhlwfbsqbcUBS9UhpfqOKRnKsMdZcGGrBmjRMUqQWkEaeBSVCEAuVNe7gpelYbbrmfuJOe7mUL4avlnRk3SgJHRb2TuNzD3Gpi7dOwteewuLWe1mtuu4jUr+fUjqdou+ig/7yrNsGYuahAPriOQ+40tqR1tOd/UuHX48eKllWnzfpWPeaIyxkXuj5TGH6XjatIL7WaPMh+3suMjSQhA7lSWu8Cs5NVoOKt0zD4TFRYhCEH0jlMcD7gaGHv0zF161nYda6uOvVnH3pzP3pjHWZ/HXpfHWavhrlby66MRw5Elm+0rc5mbUzatTt7WmeJMW1anrmnPml4vlbmH3fOEJZPERe2Zs3ZkT92fMyX2aWfO1Pr0winJRSQRDbIRewKQO2Xlbn9lh33MrmNtDVmatDlxZHnh/Vq7390H0ZHqVNJca46xOmdsTc742n/SqOrc/CppKvGL65TCsgJR8RTxkrkpi2OfZogXa4UlkSo7rkNFApA7VeXujMZQcQZkxL9URpYXHtCxt6p4rVHqhzKx2T4bMt0qS7c4kjTdIk21yLzPVFMKSjXC0jxhSeyTVliiQKjde9VEqZGQ6rKQOwXlnjDRmKC+A0xJQ3rmLjW3jVQdDJkBgXgRgNypJndEYxiHCKU/8mKQPRpue7z6Eu4LAqQiALlTTO6IxhCa3f7iVsaQgQm5U6w9k8qGNMsM5E6dzoBojJcxu0P3kDvN3ITihEkAcqeI3BGN8Wl2jNzDFAFOpx8ByJ0ackc0xls0xrkfI3f66QklCocA5E56uSMa42/MHnhYRikuG68onm1aumhckbc0f8ySb+TFeWkEj+zLBGaZ2Jqd3ZSmXkfClJ3d5O0l2nlppWNlxYWjvZbaQWPeqCJjVolSRFD2cCyDc+NCAHInt9wRjQnM7IGEZVTJpQU5xeWzFq4rn9fXPNdb2lQ3t2LWwknqpUrRf9bLdZg9J7tJbOpjzzxGwiQ29WVnN0vFFW7r7SjFZZM1yywzFm2s8VpqB43umsIFY4pMWXj6idxaCGz+PuRO6lpENMYZdfG74TcsM1mzrH7+wp93Tbt5ZPLdY17T7e8nX+6f0lE6r0BSohS/H8PKxNac7CbOjKNflP31cc1jEqYvyv5izT6ZJVkhE1udQ0WluGyconiNdd6l/mk3j0zyUfC7xybf+G7Kyd4ZVbMXOk/HBnUJQO5klTuiMQGP2QMMy0xULaubv/D3oakvz014c8Frenluwt1jk9dXFBZkF7sGKKTi8ixJS9LC85/UPv6w5R0J0yeVfzMLz2RJVkiF71dEUIhKR+cWb6wqvHNs8ouzXkvtAPLszMTze6bVzYPcyaqFwMbsji8kyJ2stcgvV3PbsG6M3wG78wC/I3dTdvGicUt+2DLj1veTH56a5C3dPT7p3K5pjYsW5KeWKlwiM1JxeXZ2M2v2yc+st/5X/5xk6dn/6p99tfQ33qShnIzl/x1sluWllTYuWvDzjum3j/kq+IOTE28emXJg1eylExf/9wpk7SPBmC4BSwS5k7LhCixKfq2e2Yd1Y5zu9rvhV+5KUakxq2TpxCWd5nm7V872lnob5i6btGSstNjV7HKhfeF4qbgiS7JCNGY3a/YJUiX27BOc6UdT9L05GctlovcxGYfRFMKysdLixd8s6akt9Fbq3Stnb2+es76icJZhqS7jfTAqAZ1ImyJD7qSV+3IDY49fo+EAJwG/cpcLzQpRmTGrZFq+r9kyPmaMkHa2TLpqbYaiMyejwZuYlKJSXUbpHJOv2TILxhbN1BdpU2F2Ujoh+D9TIHdSViTfquQt1zN3mRhDTnlhwzeBQOTuzX3YDwL0IwC5k1Hu9nde8yvz2BsxePctdNd/hdzppyeUKBwCkDsZ5T4S4bWoeI15nC4Dc68pCeN34pUgIfdwOj/OpTcByJ2kcnc0OyWvIZ/dY2AcQHzG1eOE2xi501tVKF2wBCB3UstdLihX8uvy2d2IzxAK3XUn5B5s58fx9CYAuZNb7vYZeIjP+I/JBLL8AL17MkoHAm4EIHeyy91RYYjPuA7SCbcDGbnb56qLynOTKyUpVYmWclOrc5MrpR6z4N2MgI+0IQC5U0PuiM8QCt11ZyByl4rKM+SrUvS9wjG7Ey2JRu1M1W7MzmqijbxQEN8EIHeKyB3xGX9LzfiVuyS9Pl21jjXz2NeLL35Z/HvCpWW/fb3wvHDsPvviM+IK317Av9KAAOROGbk7WhviM66jdddtv3LPlLXzx/d/Uv2AhGt+xSxLXy+6mKzvzU2toYG8UATfBCB3iskd8RlXobtuQ+6BfENA7r6FSKd/hdypJnfEZ7zEZ/zKHWEZhGXo5G6/ZYHcqSd3R6UiPuM6bA9wKqRUXJ6u7BQbtwnG7U+0JBy7JyV/U3Z2s18p4AB6EIDcqSp3xGdCkLtMaJYmV0pSayTpdYmYUqul4nJ6mAul8EsAcqes3BGf+W98xm9Yxm9nwAEgQCcCkDuF5e5oiIjPOIbwkDudxISyhE8Acqe83BGfgdzDFwGuQD8CkDv15Y74zEh8BiN3+ukJJQqHAOROB7k7WkAs4zOmpCETY8DIGDAxhkxJw6akgNb2cvsJNLIfIfdwRIBz6UcAcqeP3GMZn9Ezd+axN+Szu/WsXUZyvAsQcqefnlCicAhA7jSSe0ziM6akQR1zh4bTqeQtV/Ea1dz2fPZGPXOHkdEf2ZF4sFcLRO5KvmUMd/lUzorZ7FWRTTPZbaO59Vp+EGu25CoqcsbXZE+uy54absoZXyPNscpEZeG4AOfSjADkTiu5O1pn9OIzpqRBA2OfhrNayft3cRKBVcGr0XI6daw+I+OAkXEwXoEav3JXCSxGXs1SRlfjV7tXfzkQ2dT21f6ljA3jOY1KvkUm8NOoZKIyaZY1a87y1Pa21LUdqV2rwk1tbdkTa6W5VpnQz61p5i8UxwcByJ2OnSFq728aGbOvVvBq5ALLP61KYLZv8yuV/Do1tzmP0xWvQI1fuY/nNJqTNh/85MzJj66c/vBqZNOpj3779n/nG77aNYazXCWw+uhycqFZmmXNqGwRDazjX93M+2Mz/9qWcNOVzaJD6zKLm6TpFozffcNPnH+F3Oko9yjEZxzRGK09GuNidpdxokxgVgjKlbx6Dbc9j9OVz9piYO02MQ6akoaDDbCEdrxfuU/htNZ/vePkR1eufHA74uny/92++MHNDZ8fmsFu0/L9PAUqlZSntrUJz/Rwn/RFJt3fJrjYk17bKs20yET0bNKJI+VIlRRyp3NPiFR8hiAa46J197YosCgElSpek5a9Xs/abmDsH4nVDNon2ERT9H7lPoHTVJHUO/zx+TMf/nH2wz8jm37+8NpPH15d//nQLFa738i7NNuaXtsq+q6Ld7OXe7OXF376c4vweFeGuUmGkbuPlplg/wS501nukZo/QxCN8d5P7BFneypX8KtGYjWteex1OtZWA3OfiTEY2qg8kLP8yl3NLx/Nqy9L6ln55b51XwxFNq35crDh651z2Ku0/AqF35i72CyVVWQtbEhd257SvSqlJ+y0tiNrZn2uogIxGfehhveGSvsjIXdayz3s+IzfaIyfHiIwy/kVSn6ditui4XbkcdbnszeNTK3ZZ0waMDEiGbHxK3e50BzF2TKs9omcZj2v2g8QF9dgtkzgrHBkCAQgd5rL3dEmQovPBBeNcdGWt4aosIt+uYazOp/dOzKQHwpkSB7gMYHI3VvGsB8E6EcAck8IuYcWnwkqGhNI3xiJ2FgV/Eo1b6WOvdnEOBiguAM5DHIPpApwTOIQgNwTQ+5BxmfCjcb4G8Wr+E35nO7IPvcEuSeOtlDSQAhA7okid0drCCQ+Y0oacn9SyZ+sA2lqrsdA7q40sA0C0SAAuSeW3AOJz+iZOzWc/z6pBLlHmkA0OjOuCQKuBCD3BJO7z/jMv9GYNd6eVHJtOuFsY+QeDj2cCwKBEIDcE07ujmbhGZ9xicbUBdJ0wjkmjnJXCkq1wlKdsCTYpBWWqgSlckFMF+dSCaxafqWGX67k/7veA/6GAIHACEDuCSp3z/iMMxojc64bE1gbCsHy8ZK7UlA6Trx0adqCpow5waalaQvGi4vUwtIQyhvyKZO4LcWMjfNZnWO4y0O+CE5MTAKQe6LK/d/4jJbTmc/uyWNv0HA7oh2NcfaxuMg9T1gyWVzUmTlzUDL5R9n4YNOgZHJX1ozpyUvyhCXOgkRvQ80vn8NateKr/bs+PbH1s6PVSdsmcJrU/latiV5+cGXKEYDcE1fujsaqEFQo+DUKfrVc4Ge5qwg27rjIfYxoWWnaggvysU9UxpdqQ7Dpicp4VTG6Kr1wjGhZBFF4u5SeV73iy/3f/u8XxxpnOz/9oYTRredVeTse+0HAjQDknuhyH1mw1zKyGkzsUMRF7lOTi1oz5lxTjH6uCtrsL9WG5yrDbcWo1ZmzpiYXufWiaHw08mrWfz58/KPLDrkPfXy29cu9o7hR/zkkGmXBNeNCAHKPndHiUsHkvGlc5D5KVLwwddG27Knf504INibzo2z897kTduVMLUpdMEpUHAOqGn7FEmZX5xeD+z45veeTkyu+2l/I6sznV8bg1rgFPQhA7pB7HAjERe5yoVkjLC1MWVyVVrgyc3awqSqtcH7KwtgE3OX2X0TMcoF1Bru9+utt1qQtk9mt9DAOShEzApB7HNQWs9ol7Y3iJXe5oCxPWGIUFo8SBZ2MwuI8YYkillMhBWVafqWRV2PgVWvwU2rU5m6RtpuEmTHIHXKPA4G4yR2CAIGEIQC5x0FtYX4h0+B0yJ0GlYgikJwA5A65x4EA5E5yLyB7NCAAucdBbTRoN2EWAXIPEyBOBwG/BCB3yD0OBCB3vz0TB4BAmAQg9zioLcw6o8HpkDsNKhFFIDkByB1yjwOBeMldJjTnJldJ0utzspqCTZL0+tyUKpkQqzPGocGQXKPkzB7kjpYaBwJxkbtMaJEmV2ZK29O0G1MMW4NNadqNmbKO3NRq+J2cLkOu3AhA7nFQm1sdJODHuMhdklqTrlyTtODcZ9Zbn1bcCzZ9Zr319ZJLaZoNktSaBKwyFJlyBCB3yD0OBJT8Oi2308g8UMA4FKlkYgzoWdvUXK+P6WdnN4sLtn9afufDpjcftrwLOjW9+aTmIW/SUKa0jXL9HBlOQAKQexzUloDtzL3I/Co1r8XA3G1iDBgjlZj78zhdKp7Xl1pkSVaIxuz+3HLzo/rnHza+CjZ91PDy46oH7JnH01Vr3YuTMA89ouAUIgC5Q+7xICAwKwRVGm5HHmdDPrsn/JTH3qjlrFPxlysEFd66n1RckZ3ZKBy7lzHv5y/M14NNXxVdZs88niFflZuCRdXj0WbwDRokAcgdzTROBARmJa9GyV+u4jdFIjUqefVygdW+mKL3PiATWbNyWtO0G8QFO4JNKfot6aq1MLsPvPgnUhGA3H25gFRVhcyAAAiAQOAEIHfIHQRAAARoSAByp2GlBv7djiNBAAToSgByh9xBAARAgIYEIHcaVipdRyIoFwiAQOAEIHfIHQRAAARoSAByp2GlBv7djiNBAAToSgByh9xBAARAgIYEIHcaVipdRyIoFwiAQOAEIHfIHQRAAARoSAByp2GlBv7djiNBAAToSgByh9xBAARAgIYEIHcaVipdRyIoFwiAQOAEIHfIHQRAAARoSAByp2GlBv7djiNBAAToSgByh9xBAARAgIYEIHcaVipdRyIoFwiAQOAEIHfIHQRAAARoSAByp2GlBv7djiNBAAToSgByh9xBAARAgIYEIHcaVipdRyIoFwiAQOAEIHfIHQRAAARoSAByp2GlBv7djiNBAAToSgByh9xBAARAgIYEIHcaVipdRyIoFwiAQOAEIHfIHQRAAARoSAByp2GlBv7djiNBAAToSgByh9xBAARAgIYEIHcaVipdRyIoFwiAQOAEIHfIHQRAAARoSAByp2GlBv7djiNBAAToSgByh9xBAARAgIYEIHcaVipdRyIoFwiAQOAEIHfIHQRAAARoSAByp2GlBv7djiNBAAToSgByh9xBAARAgIYEIHcaVipdRyIoFwiAQOAEIHfIHQRAAARoSAByp2GlBv7djiNBAAToSgByh9xBAARAgIYEIHcaVipdRyIoFwiAQOAEIHfIHQRAAARoSAByp2GlBv7djiNBAAToSgByh9xBAARAgIYEIHcaVipdRyIoFwiAQOAEIHfIHQRAAARoSAByp2GlBv7djiNBAAToSgByh9xBAARAgIYEIHcaVipdRyIoFwiAQOAEIHfIHQRAAARoSAByp2GlBv7djiNBAAToSgByh9xBAARAgIYEIHcaVipdRyIoFwiAQOAEIHfIHQRAAARoSAByp2GlBv7djiNBAAToSgByh9xBAARAgIYEIHcaVipdRyIoFwiAQOAEIHfIHQRAAARoSAByp2GlBv7djiNBAAToSgByh9xBAARAgIYEIHcaVipdRyIoFwiAQOAEIHfIHQRAAARoSAByp2GlBv7djiNBAAToSgByh9xBAARAgIYEIHcaVipdRyIoFwiAQOAEIHfIHQRAAARoSAByp2GlBv7djiNBAAToSgByh9xBAARAgIYEIHcaVipdRyIoFwiAQOAEIHfIHQRAAARoSAByp2GlBv7djiNBAAToSgByh9xBAARAgIYEIHcaVipdRyIoFwiAQOAEIHfIHQRAAARoSAByp2GlBv7djiNBAAToSgByh9xBAARAgIYEIHcaVmrsRyIFsrq9fSfv3n70+vXbu7cf7dl2wpRbG/ts4I4gAAJOApA75B4ugdGK+ju3Htr++9+tGw9Gyeqc7QwbIAACMSYAuYerthhXGAlv17/r9H/F/s+nAzt/JGFukSUQSBACkHvCyX1awcq25fsP9Z+9dOHGg/tPX754/fbtu6dPXty++fD0D7/1dR9dNnuDOsUaeAe4d/cxodzv3XkU+EUifqQ6xVo8d2Nv15FTx6/cvH7/6ZMXb9++e/ni9YP7T389f31o35mWqt3jNI0Rvy8uCAIkIQC5J4rcdVlVnS0Hr/1+h1DEbjvv33vS1TGcn1EZSDN9+uSF2+mOj08evwjk9IgfM07TuLv3h8ePnhPmynXnu3e2s6f/qFiyJeJ5wAVBIO4EIHf6y12VbF3TcvDJY2IFu8rObfvvu49rSrb5baPnz1xzO9Hx8dxPf/g+d1rByu7Ow66p3rLD9ym+/zUvo3L7pmOvX78lzI+Pnb9dujVvUqfvi+NfQYBaBCB3mst9irH16pXbPrzm95+ODP2Sn1nlo1mXzut+9879Mu/e2YrnbvRxllxoXlm3z+20n07+7vsUH/86c0z7zev33S4Y+Me3b99tWvutj+vjn0CAWgQgdzrLvXRe9/NnLwMXnLcjr/1+Z6xyuY+WXVva9/DBM+fpD+8/rS72P+Tfsv475ymOjZDlvmzOhufPX7ldLYSP3x+6oEoO4vcGH0zwTyAQXwKQO23lXr54cwgBCm9C7O064rulqlPLF05dW7Fky8Kpa9Wp5b4Pdvzr4L4zbrcLTe6Lp697+eK126VC/nj00AWFiLatIpB6wTH0IAC507Mbz5vU+fKlL9+9ffvu8oUb+7afWt821NFwYO2Kgd1bT1w4++fbtx4RFpvt/JlrQc2fCbBvnD7xm5uCQ5D7OE2j6x8Nbhe02WzPn708eujC9k3HOlsO9nQe7t99+o/f/Pyq7PebLMAC4jAQiCMByJ2GcjdKau7fe+KpOceely9fb1733RgvYZaxqobdW0+4Kv7OrYcF0Xkc6drVu26ZDEHuZ0//4XYR58e/7z6ut+zQpld4drBZY9uPDP/iPNJzo2hWl+dZ2AMCFCIAudNQ7ocPnvO0lWPPmZO/T8xv9ttA503q/OvaPZvN9vLF69nfdPg9PrQDPOdQBiv3ButObyU99u1Fo6TGd8ZqS/u8/X1z46/7AQaXfN8C/woC8SIAudNN7gunrvXmu+8GzyvFlgCbmj67+szJ4ddYNwAAD5FJREFU3wP5XTTAC7odlp9R6ZnPoOSuSrZ6LnvguOap41cC/F3Uumiz658prllaUbvXLc/hfFSnliOUHw5AnBssAcidbnL/5ec/XQ3l3D7+7cXAzR5UM9KmVSycutYz+dbrFEOrM2/OjaDk7m3Y/te1e3mBPX7lKOaa1gFnBlw37tx66IPYwqlrd2894ZpqS/vcuM0dv2rH5uO/Xbr16tUbm8327p3t/t9PTp/4bU3LwdHyereDA/w4xdi6pnXg2LcXr//596OHz968efvi+Sv708UnfuvuPDxrbHuA18FhtCcAudNK7vMmdbrqybn98MGzAmm0lmmcYiTQtM1m8/SXtzGyM5/eNvp3nfbsihfOEn+Nlc3v8TzYxx6l2OIZ/XfkpKSw29uJrTV73HLr+s00Z1zHzz9edTvA9ePrV2+6Ow8H9TP1jNFtp45f8XykwPWyNpvt8oUbloWbvGUb+xOHAOROK7l7Ti509HzPQWUEm3hc5D4hr8lNao6PZ0J6DKpsfg/h1Q71n/UGylPud249lAvNuqyq/t2n/SrYcbtrv9/5Rt3g7Rau+zsaDrweGf4T5tNz56ULN6L3Y4lrxrBNWgKQO33krkq2ev5EabPZfIcXwm+acZG759OtDsGF9jWmEJn/Jlr+7NHDZ94C5Z5yf/fOVjSrK9inZK//+bfnnzhulbKq8YCnvv3uefPm7doVA26XwsfEIQC500fuy2ZvIOzwXe1DUW3QcZH70UMXPAv7/PmroKLtrli2bzrmeUGbzTZnHPFkIU+5E54eyM6L5/7y9hUiF5oXTFkT4N8BnveqXNrrWkZsJxQByJ0+cu/pPOzZvW0224S8pqi26bjInXCezKljl0Muqbevxuaq3YTXjKDcbTabj5k5ly/cIKzWWzceDO07s73nWP/u02dOXfV8GnnPthOEOcfOBCEAudNH7iePXva0wP2/n0S7KQcu9z3bTuzbfsqRCB8TvXfnkfMA1426su2updBnV3uW1GazhfNkaYGsjvCa3hTpV+6/nr/eUrV7sr5Fk1peIK1dNG3d3r6Tb94Qr1j55PELwtXZpo9a6Zmrt2/ftdbscQUiF5r12dVt9fuca+v/dukW5um7IUq0j5A7feROGO09evhitNt04HJ3zcnurSc8teU64cT1YLftGaPbPM+12WyBLFDsdinXj4SP9Z74/pLrMc5tH3K///cTbzkpnLia8HcRm83WVLHLeXHnRmfLQc+S7u79wXmA24Y2rWLbxu+fPH4xSd/i9k/4mGgEIHeayF0hMhPOptiy/rtot+nYy72ksNtTeTabbf7kNeEU9sK5vzwv+9ulW4TX9Cb3SxdujFb4msNuXbTZ8y62kQV8PG+0q/cHz4OLZq73PNJ1jz672vUjthOTAOROE7kbJTWeFrDZbJ0tB323bHVquSaw5O2JntjLvaZkG2Fhp49a6buwvv/19A/uC5nZbLZbNx4QnkUo93t3HxMuZeN2BW8Pmnmul0A4t9XvQvlut8PHxCQAudNE7t+oGwh9R/jHvmtbD3wZdM84r+M6sZd7QznxkjJhvhOVcCkxbz9aEMr9rz/uubL1tt1UsYuwsjytva37qOeRMQi1ecs59lOIAOROE7lP0rd4WsBms1Uv2+q7OVJR7s1VuwkLOyq81SuHD/zsednHj54TAgxH7qMV9Z43stlsXR3DbvdabtlBeOSh/rOIvbixwkc3ApA7TeQ+Xkv8xCYtR+71XpQ3Sed/wUu3DuD68fh3v3qa9N6dR67HOLfDkbtcaH708P2Lq5w3Hdr/s/P6jo38zKoXXt4w9fjR8+7Ow77fkOV2NXxMKAKQO03kPsrLTL7VTf2+GzQVR+6VS3udQnTd8PbAkW8Czn8lXBr+xp9/Ow9w3QhT7heJfrz94civrrdwbHtb18xR8Ldv350+8Vu9ZYcmsLdfeV4fe+hKAHKnidzVqeWEzzH2rDnsu+1SUe6Lp69zdbpzO8w3bPx++ZbzUs6NX37+kxBgmHIn/PH2/JlrnvdSii0/HCH4k8KZQ8fGo4fPeruOhPmrg+fdsYe6BCB3mshdLjQ/uP/UrcPbbLYjQ7/4bp1UlPskXbNnSW02W9vy/b4L6+NflWIL4Ys7vhs8T3hWmHI/eviiZxG8TbvUpJYT/tjreYU3b97u7TsZvRVACVFgJzkJQO70kTvhX/reZvL5bo6E9iTPbBl1itXzaXubzda/m2BlYN8ldf6rtwejvD31Gqbcfzx+xVPNv/5y3Zkfz40VtXufPH7heZbnnvt/PwnzjxjPu2MP5QhA7vSR+96+k5793GazmXKDXsmd5HKXC81Xr9z2LKy3kW8g3dLb9Epv043ClDvhA1NnTl31nVVTbu2mtd8+JPoTzY3G69dvg13X3vet8a+UIwC500fu3vTkY1Eqb+2V/HLv33XaTWeOj4G8IZaw1IRTZXwsuxam3O/deeSZ/6F9Zwjz5rZTnVreUL7z8sWbnldw3fPi+atorxnnljF8JBUByJ0+ch+rXO7at53bly7cCLbNkV/uVcu2OgvourHBY6p4IGU35FQTLt5w3ctUGbnQHI7cvT1OvHHVoUBy6zymcOLqoX1nCCNUDiZHD11wHoyNRCMAudNH7nKh2dvysAumBLfoCvnl7k3Ht28+DGE1RML1uWw22/aeY96MEI7cK4uIp3KGFkj5Rt1wqP+s6zecc/vNm7chBOW8FRn7qUUAcqeV3FfU7nV2bNeNP3674/t11W6tNgZyJ1wSK8BVIR25PTL0i2sZndtr/C2n41ZYo6TG2w+VM8d4fd90OHI//i3BVJnXr9/qsqrc8hb4x5bqPYRzYav8PaIc+C1wJLUIQO60knt+ZpW3FWWDWh4yBnLv7Tri1LFz48K5vwLvP0Wzupwnum48ffJivDaI95P07yYO31/0mZmQ5T53/CrCF4WH86YRB7TDB8+5cnBsdzQeCBwpjqQTAcidVnKXC80bOoY9e7hjz/q2QN+3FwO5r28b8szn/XvBvVqEcPanzWb78+pdQ05Ay96ubu73zIZjj+8gCaHcH95/Olbl64XX+uxqwnk+NputpLA7TLO0EC25E+2XLIaZZ5wePQKQO93knpdRSfgKOoew9vadDMR6hJO+IzvPva5sO6FVpxUEsWyvt0dVbTbb5Ys3fS81oxCZ17cNEQ6ibTbb2dN/+O51hHK32WyPHz339qaOMcrlhDMgbTbbtd/veLvdkhnrfz1/PZCXb6xbOeiJ1O/iQt7ui/1UJwC5003ucqHZ2+tAHT3/4YNnq5v7vT2nrkktb7DuJHwnUWTlPnNMu6eJbDabtydCvfU0whXPHVd+/uxl+/L92rQKz3PnjOsgXEnGceKrV2+mmVZ4nuW6x5vcHVf447c7qxoPzBzTnp9ZlZdROWN0W3fnYW+RfZvN5i0ybpTU3L1tnzT5/PmrjoYDPn44UYothG8unDep0zXb2E4cApA7DeUuF5p71hC/LNvVp1ev3B7cd2Zb99E1LQfXtBzs7Tpy8uhlbyF7m80WWbmrkq2PHz13zY9ze2DvmW/U/wQ3NKnlZfN7Zoxu89YndVlV1//823mu58azpy+PHr7Y03m4o/HAmtaBvX0nCSXoemJLtfsbSj3v7lvurlfzu3344DnP6zv2fH/oguvpN/6631y12/OdHkZJzdH/Huk4697dx96ujP20JwC501PucqF5YO8ZVy+Evx1ZucuF5v07f/SRq/t/P7n/9xPHDBBvawA4+uc00wrCFXR9XNzHP+3ccjyQbh8pud+68cDbyuzelq1/8+bthbN/Hj54bsfm47t6fzh59PLLF68JS7SmdSCQsuAYWhKA3Gkrd7nQTDjdkNACfnde+fWmt1dhhPYmJrnQPH3Uyjdv3vq9tbf3i7p2yDnjOh4+IFghPZCLux6zZ9sJ18v62CaU+4P7T70F8V3v4tz+6497zr9R3O6ly6ryEcZxXsHHxp9X76pTrG6XxcfEIQC501nucqG53rz9+bOXPhQQyD8d3PNTfkalt14RstzlQvO2jd8HkoGXL1/79dSEvCZvE1ECucXr12+DmjVIKPejhy8WzeoiXJ7TMw8//3jV9/KNs7/p8BtB8rysY8+9O4+Cmg/qrXKxn7oEIHeay10uNI9VNRw+eI7wCRdvanDu//3yraWzuny373DkrhRbvh0gmJ3tzIBzY/5k/w/ZqlOsm9Z+S7hyr/M6hBsXz/3lI6xPWHxCuZ86fkUuNBdIa3dvPeFjVYC/7z6uK9tOeFm3nerU8q6OYW8/ThCWxfGHDlaVcSOZgB8hd/rL3dGspxhb9/adDDA2/ebN21PHLvue6O3sLeHIXS40K8WWdSsH/S4rH/ha7WOVy3dsPh5ISd+9s505ddWycJOzLIFvEMrddQLlOE3jupWDF8795VDz27fvbt148O3AuZqSbcEukJCfUbmm5aCPGa5Oy/917V5rzR6FKFFadeD1lYBHQu6J1Q2UYsviGes3dAwfPXzx6pXbjx89f/Xqzdu3754/e3nn1sOzp//Y23eytrSvILw3TYfQkUYr6tvq9508evnGn38/ffLi7dt3T5+8uHb17veHLnS2HAx2WC0XmtUp1mVzNvR2Hfnx+JVbNx48e/ry7dt3L1++fnj/6aULN4b2nWmp2u1tPmgg+SeUu7cF2f3GlAK5o1xoXjBlTU/n4VMjJXrx/NXbt+8eP3p+46/7Z07+3tN5eMmM9QFeB4clAgHIPbHknghtOjZlJJT71Su3Y3N33AUE/BKA3CF3EAiFAKHc//rjnt8uhwNAIDYEIPdQOnZs6gZ3ITMByJ3MtYO8yYVmyB1yB4FQCEDuECjJCUDuoXRsklcqshcDApB7DCDjFuEQgNwhdxAIhQDkHo53cG4MCEDuoXTsGFQMbkFyApA7ySsI2YPcIXcQCIUA5A57kpwA5B5KxyZ5pSJ7MSAAuccAMm4RDgHIHXIHgVAIQO7heAfnxoAA5B5Kx45BxeAWJCcAuZO8gpA9yB1yBwEQAAEaEoDcaVipGLOAAAiAAOQOuYMACIAADQlA7jSsVIxZQAAEQAByh9xBAARAgIYEIHcaVirGLCAAAiAAuUPuIAACIEBDApA7DSsVYxYQAAEQgNwhdxAAARCgIQHInYaVijELCIAACEDukDsIgAAI0JAA5E7DSsWYBQRAAAQgd8gdBEAABGhIAHKnYaVizAICIAACkDvkDgIgAAI0JAC507BSMWYBARAAAcgdcgcBEAABGhKA3GlYqRizgAAIgADkDrmDAAiAAA0JQO40rFSMWUAABEAAcofcQQAEQICGBCB3GlYqxiwgAAIg8P8BV9h3LLkM1CYAAAAASUVORK5CYII=;" vertex="1" parent="1">
          <mxGeometry x="214.73" y="-70" width="270.53" height="224" as="geometry" />
        </mxCell>
      </root>
    </mxGraphModel>
  </diagram>
</mxfile>
